# Blender 4.5.4 LTS
# www.blender.org
mtllib bench.mtl
o Cube
v 2.015275 2.002328 -0.750972
v 2.015275 0.002328 -0.750972
v 2.015275 0.786588 0.750642
v 2.015275 0.002328 0.750642
v 1.815275 2.002328 -0.750972
v 1.815275 0.002328 -0.750972
v 1.815275 0.786588 0.750642
v 1.815275 0.002328 0.750642
v 1.815275 0.002328 -0.606617
v 2.015275 2.002328 -0.606617
v 1.815275 2.002328 -0.606617
v 2.015275 0.002328 -0.606617
v 1.815275 0.611725 -0.463107
v 2.015275 0.786588 -0.463107
v 1.815275 0.786588 -0.463107
v 2.015275 0.611725 -0.463107
v 1.815275 0.002328 0.605813
v 2.015275 0.786588 0.605813
v 1.815275 0.786588 0.605813
v 2.015275 0.002328 0.605813
v 1.815275 0.786588 0.460262
v 2.015275 0.611725 0.460262
v 1.815275 0.611725 0.460262
v 2.015275 0.786588 0.460262
v -1.810254 2.002328 -0.750972
v -1.810254 0.002328 -0.750972
v -1.810254 0.786588 0.750642
v -1.810254 0.002328 0.750642
v -2.010254 2.002328 -0.750972
v -2.010254 0.002328 -0.750972
v -2.010254 0.786588 0.750642
v -2.010254 0.002328 0.750642
v -2.010254 0.002328 -0.606617
v -1.810254 2.002328 -0.606617
v -2.010254 2.002328 -0.606617
v -1.810254 0.002328 -0.606617
v -2.010254 0.611725 -0.463107
v -1.810254 0.786588 -0.463107
v -2.010254 0.786588 -0.463107
v -1.810254 0.611725 -0.463107
v -2.010254 0.002328 0.605813
v -1.810254 0.786588 0.605813
v -2.010254 0.786588 0.605813
v -1.810254 0.002328 0.605813
v -2.010254 0.786588 0.460262
v -1.810254 0.611725 0.460262
v -2.010254 0.611725 0.460262
v -1.810254 0.786588 0.460262
v 2.200001 0.892366 -0.436454
v 2.200001 0.792367 -0.436454
v 2.200001 0.892366 -0.036454
v 2.200001 0.792367 -0.036454
v -2.200001 0.892366 -0.436454
v -2.200001 0.792367 -0.436454
v -2.200001 0.892366 -0.036454
v -2.200001 0.792367 -0.036454
v -2.200001 0.792367 0.426601
v -2.200001 0.892366 0.426601
v -2.200001 0.792367 0.026601
v -2.200001 0.892366 0.026601
v 2.200001 0.792367 0.426601
v 2.200001 0.892366 0.426601
v 2.200001 0.792367 0.026601
v 2.200001 0.892366 0.026601
v -2.200001 0.792367 0.894583
v -2.200001 0.892366 0.894583
v -2.200001 0.792367 0.494583
v -2.200001 0.892366 0.494583
v 2.200001 0.792367 0.894583
v 2.200001 0.892366 0.894583
v 2.200001 0.792367 0.494583
v 2.200001 0.892366 0.494583
v 2.200001 1.706018 -0.467447
v 2.200001 1.693455 -0.566655
v 2.200001 1.309187 -0.417195
v 2.200001 1.296624 -0.516403
v -2.200001 1.706018 -0.467447
v -2.200001 1.693455 -0.566655
v -2.200001 1.309187 -0.417195
v -2.200001 1.296624 -0.516403
v 2.200001 2.125648 -0.517400
v 2.200001 2.113971 -0.616716
v 2.200001 1.728384 -0.470692
v 2.200001 1.716707 -0.570008
v -2.200001 2.125648 -0.517400
v -2.200001 2.113971 -0.616716
v -2.200001 1.728384 -0.470692
v -2.200001 1.716707 -0.570008
vn -0.0000 1.0000 -0.0000
vn -0.0000 -0.0000 1.0000
vn -1.0000 -0.0000 -0.0000
vn -0.0000 -1.0000 -0.0000
vn 1.0000 -0.0000 -0.0000
vn -0.0000 -0.0000 -1.0000
vn -0.0000 -0.2292 0.9734
vn -0.0000 0.1172 0.9931
vn -0.0000 -0.2323 -0.9726
vn -0.0000 0.1256 0.9921
vn -0.0000 -0.1256 -0.9921
vn -0.0000 -0.9921 0.1256
vn -0.0000 0.9921 -0.1256
vn -0.0000 0.1168 0.9932
vn -0.0000 -0.1168 -0.9932
vn -0.0000 -0.9932 0.1168
vn -0.0000 0.9932 -0.1168
vt 0.772461 0.562500
vt 0.177734 0.437500
s 0
usemtl Material
f 19/1/1 3/1/1 18/1/1
f 3/1/2 8/1/2 4/1/2
f 11/1/3 6/1/3 9/1/3
f 20/1/4 8/1/4 17/1/4
f 18/1/5 4/1/5 20/1/5
f 5/1/6 2/1/6 6/1/6
f 1/1/5 12/1/5 2/1/5
f 2/1/4 9/1/4 6/1/4
f 15/1/3 9/1/3 13/1/3
f 5/1/1 10/1/1 1/1/1
f 21/1/3 13/1/3 23/1/3
f 12/1/5 14/1/5 16/1/5
f 12/1/7 13/1/7 9/1/7
f 11/1/8 14/1/8 10/1/8
f 7/1/3 17/1/3 8/1/3
f 22/1/5 18/1/5 20/1/5
f 22/1/9 17/1/9 23/1/9
f 21/1/1 18/1/1 24/1/1
f 15/1/1 24/1/1 14/1/1
f 16/1/4 23/1/4 13/1/4
f 14/1/5 22/1/5 16/1/5
f 19/1/3 23/1/3 17/1/3
f 43/1/1 27/1/1 42/1/1
f 27/1/2 32/1/2 28/1/2
f 35/1/3 30/1/3 33/1/3
f 44/1/4 32/1/4 41/1/4
f 42/1/5 28/1/5 44/1/5
f 29/1/6 26/1/6 30/1/6
f 25/1/5 36/1/5 26/1/5
f 26/1/4 33/1/4 30/1/4
f 39/1/3 33/1/3 37/1/3
f 29/1/1 34/1/1 25/1/1
f 45/1/3 37/1/3 47/1/3
f 36/1/5 38/1/5 40/1/5
f 36/1/7 37/1/7 33/1/7
f 35/1/8 38/1/8 34/1/8
f 31/1/3 41/1/3 32/1/3
f 46/1/5 42/1/5 44/1/5
f 46/1/9 41/1/9 47/1/9
f 45/1/1 42/1/1 48/1/1
f 39/1/1 48/1/1 38/1/1
f 40/1/4 47/1/4 37/1/4
f 38/1/5 46/1/5 40/1/5
f 43/1/3 47/1/3 41/1/3
f 53/2/1 51/2/1 49/2/1
f 50/2/4 56/2/4 54/2/4
f 51/2/2 56/2/2 52/2/2
f 49/2/5 52/2/5 50/2/5
f 53/2/6 50/2/6 54/2/6
f 55/2/3 54/2/3 56/2/3
f 58/2/3 59/2/3 57/2/3
f 60/2/6 63/2/6 59/2/6
f 64/2/5 61/2/5 63/2/5
f 62/2/2 57/2/2 61/2/2
f 63/2/4 57/2/4 59/2/4
f 60/2/1 62/2/1 64/2/1
f 66/2/3 67/2/3 65/2/3
f 68/2/6 71/2/6 67/2/6
f 72/2/5 69/2/5 71/2/5
f 70/2/2 65/2/2 69/2/2
f 71/2/4 65/2/4 67/2/4
f 68/2/1 70/2/1 72/2/1
f 77/2/10 75/2/10 73/2/10
f 74/2/11 80/2/11 78/2/11
f 75/2/12 80/2/12 76/2/12
f 74/2/5 75/2/5 76/2/5
f 77/2/13 74/2/13 78/2/13
f 79/2/3 78/2/3 80/2/3
f 85/2/14 83/2/14 81/2/14
f 82/2/15 88/2/15 86/2/15
f 83/2/16 88/2/16 84/2/16
f 81/2/5 84/2/5 82/2/5
f 85/2/17 82/2/17 86/2/17
f 88/2/3 85/2/3 86/2/3
f 19/1/1 7/1/1 3/1/1
f 3/1/2 7/1/2 8/1/2
f 11/1/3 5/1/3 6/1/3
f 20/1/4 4/1/4 8/1/4
f 18/1/5 3/1/5 4/1/5
f 5/1/6 1/1/6 2/1/6
f 1/1/5 10/1/5 12/1/5
f 2/1/4 12/1/4 9/1/4
f 15/1/3 11/1/3 9/1/3
f 5/1/1 11/1/1 10/1/1
f 21/1/3 15/1/3 13/1/3
f 12/1/5 10/1/5 14/1/5
f 12/1/7 16/1/7 13/1/7
f 11/1/8 15/1/8 14/1/8
f 7/1/3 19/1/3 17/1/3
f 22/1/5 24/1/5 18/1/5
f 22/1/9 20/1/9 17/1/9
f 21/1/1 19/1/1 18/1/1
f 15/1/1 21/1/1 24/1/1
f 16/1/4 22/1/4 23/1/4
f 14/1/5 24/1/5 22/1/5
f 19/1/3 21/1/3 23/1/3
f 43/1/1 31/1/1 27/1/1
f 27/1/2 31/1/2 32/1/2
f 35/1/3 29/1/3 30/1/3
f 44/1/4 28/1/4 32/1/4
f 42/1/5 27/1/5 28/1/5
f 29/1/6 25/1/6 26/1/6
f 25/1/5 34/1/5 36/1/5
f 26/1/4 36/1/4 33/1/4
f 39/1/3 35/1/3 33/1/3
f 29/1/1 35/1/1 34/1/1
f 45/1/3 39/1/3 37/1/3
f 36/1/5 34/1/5 38/1/5
f 36/1/7 40/1/7 37/1/7
f 35/1/8 39/1/8 38/1/8
f 31/1/3 43/1/3 41/1/3
f 46/1/5 48/1/5 42/1/5
f 46/1/9 44/1/9 41/1/9
f 45/1/1 43/1/1 42/1/1
f 39/1/1 45/1/1 48/1/1
f 40/1/4 46/1/4 47/1/4
f 38/1/5 48/1/5 46/1/5
f 43/1/3 45/1/3 47/1/3
f 53/2/1 55/2/1 51/2/1
f 50/2/4 52/2/4 56/2/4
f 51/2/2 55/2/2 56/2/2
f 49/2/5 51/2/5 52/2/5
f 53/2/6 49/2/6 50/2/6
f 55/2/3 53/2/3 54/2/3
f 58/2/3 60/2/3 59/2/3
f 60/2/6 64/2/6 63/2/6
f 64/2/5 62/2/5 61/2/5
f 62/2/2 58/2/2 57/2/2
f 63/2/4 61/2/4 57/2/4
f 60/2/1 58/2/1 62/2/1
f 66/2/3 68/2/3 67/2/3
f 68/2/6 72/2/6 71/2/6
f 72/2/5 70/2/5 69/2/5
f 70/2/2 66/2/2 65/2/2
f 71/2/4 69/2/4 65/2/4
f 68/2/1 66/2/1 70/2/1
f 77/2/10 79/2/10 75/2/10
f 74/2/11 76/2/11 80/2/11
f 75/2/12 79/2/12 80/2/12
f 74/2/5 73/2/5 75/2/5
f 77/2/13 73/2/13 74/2/13
f 79/2/3 77/2/3 78/2/3
f 85/2/14 87/2/14 83/2/14
f 82/2/15 84/2/15 88/2/15
f 83/2/16 87/2/16 88/2/16
f 81/2/5 83/2/5 84/2/5
f 85/2/17 81/2/17 82/2/17
f 88/2/3 87/2/3 85/2/3
